<?xml version="1.0" encoding="utf-8"?>
<!-- Generator: Adobe Illustrator 26.3.1, SVG Export Plug-In . SVG Version: 6.00 Build 0)  -->
<svg version="1.1" id="Capa_1" xmlns="http://www.w3.org/2000/svg" xmlns:xlink="http://www.w3.org/1999/xlink" x="0px" y="0px"
	 viewBox="0 0 27.4 21" style="enable-background:new 0 0 27.4 21;" xml:space="preserve">
<style type="text/css">
	.st0{fill:#026096;}
	.st1{fill:#FFFFFF;}
</style>
<circle class="st0" cx="13.7" cy="10.5" r="10.5"/>
<path class="st1" d="M19.4,7.1h-1V6.6c0-1.4-1.1-2.5-2.4-2.5h-4.3C10.2,4.2,9,5.3,9,6.6v0.5H8c-0.8,0-1.5,0.7-1.5,1.5V14
	c0,0.8,0.7,1.5,1.5,1.5h11.3c0.8,0,1.5-0.7,1.5-1.5V8.6C20.8,7.7,20.2,7.1,19.4,7.1z M9.8,6.6c0-0.9,0.8-1.7,1.7-1.7h4.3
	c0.9,0,1.7,0.8,1.7,1.7v0.5H9.8V6.6z M18.8,9.2H8.7C8.4,9.2,8.3,9,8.3,8.8c0-0.2,0.2-0.4,0.4-0.4h10.1c0.2,0,0.4,0.2,0.4,0.4
	C19.2,9,19,9.2,18.8,9.2z"/>
</svg>
