<?xml version="1.0" encoding="UTF-8"?>
<svg width="30px" height="30px" viewBox="0 0 30 30" version="1.1" xmlns="http://www.w3.org/2000/svg" xmlns:xlink="http://www.w3.org/1999/xlink">
    <title>01 Atoms / 02 Symboles / 01 Profil / 02 Small</title>
    <g id="01-Atoms-/-02-Symboles-/-01-Profil-/-02-Small" stroke="none" stroke-width="1" fill="none" fill-rule="evenodd">
        <g id="Group-5">
            <path d="M14.4992798,0 C10.9099987,0 8,2.91040726 8,6.5 C8,10.0895927 10.9099987,13 14.4992798,13 C18.0897381,13 21,10.089856 21,6.5 C21,2.91014404 18.0897381,0 14.4992798,0 Z M14.4992798,2 C16.9851867,2 19,4.01473167 19,6.5 C19,8.98526833 16.9851867,11 14.4992798,11 C12.014631,11 10,8.9850861 10,6.5 C10,4.0149139 12.014631,2 14.4992798,2 Z" id="Stroke-1" fill="#FFFFFF"></path>
            <path d="M10.3666839,16 L10.8818925,16 L15,21.777 L19.1172452,16 L19.6325523,16 C25.2456416,16 29.8418136,20.1775877 29.9960036,25.4218857 L30,25.6940779 L30,30 L28,30 L28,25.6940779 C28,21.7032911 24.6827853,18.3970539 20.4159008,18.0332251 L20.137,18.013 L15.0005161,25.222906 L9.861,18.013 L9.8458118,18.014646 C5.54001014,18.2575397 2.13580747,21.4913885 2.00396476,25.4553803 L2,25.6940779 L2,30 L0,30 L0,25.6940779 C0,20.4140426 4.50090966,16.1468437 10.077308,16.0037097 L10.3666839,16 Z" id="Stroke-3" fill="#FDC300"></path>
        </g>
    </g>
</svg>