<?xml version="1.0" encoding="utf-8"?>
<!-- Generator: Adobe Illustrator 26.3.1, SVG Export Plug-In . SVG Version: 6.00 Build 0)  -->
<svg version="1.1" id="Capa_1" xmlns="http://www.w3.org/2000/svg" xmlns:xlink="http://www.w3.org/1999/xlink" x="0px" y="0px"
	 viewBox="0 0 27.4 21" style="enable-background:new 0 0 27.4 21;" xml:space="preserve">
<style type="text/css">
	.st0{fill:#026096;}
	.st1{fill:none;stroke:#FFFFFF;stroke-miterlimit:10;}
	.st2{fill:#FFFFFF;}
</style>
<circle class="st0" cx="13.7" cy="10.5" r="10.5"/>
<path class="st1" d="M20.8,9.1c-0.5-2.9-2.8-5.2-5.7-5.7c-5.1-1-9.5,3.4-8.5,8.5c0.5,2.9,2.8,5.2,5.7,5.7
	C17.4,18.6,21.8,14.2,20.8,9.1z"/>
<path class="st2" d="M17,13.9c-0.2,0.2-0.4,0.3-0.6,0.3c-0.2,0-0.5-0.1-0.6-0.3L13,11.1c-0.2-0.2-0.3-0.4-0.3-0.6V6.9
	c0-0.5,0.4-0.9,0.9-0.9s0.9,0.4,0.9,0.9v3.3l2.5,2.5C17.4,12.9,17.4,13.5,17,13.9z"/>
</svg>
