<?xml version="1.0" encoding="UTF-8"?> <svg xmlns="http://www.w3.org/2000/svg" fill="none" viewBox="0 0 327 56"><g clip-path="url(#a)" fill="#E5E4E1"><path d="m292.36 0c3.262 1.9451 4.206 3.5068 3.724 6.1619-0.432 2.3826-2.431 3.9792-5.084 4.0619-2.855 0.089-4.997-1.2873-5.615-3.6063-0.682-2.5615 0.341-4.8526 2.702-6.0657 0.33-0.16952 0.645-0.36718 0.967-0.55182 1.102-2e-6 2.204-3e-6 3.306-3e-6z"></path><path d="m80.084 32.597h-21.583c-0.4609 2.8274 1.74 5.7525 4.7147 6.1516 3.1542 0.4232 6.0394-0.1368 8.0942-2.9209 0.2272-0.3078 0.8293-0.5995 1.1731-0.523 2.516 0.5597 5.0104 1.2154 7.7069 1.8896-2.0667 3.9329-5.0541 6.5656-9.1935 7.7703-4.0482 1.1781-8.1681 1.1948-12.224 0.0337-7.1641-2.0511-11.264-8.7174-10.241-16.48 1.0291-7.8012 6.1283-12.57 14.119-12.993 2.2332-0.1181 4.5418-0.026 6.7283 0.4072 6.457 1.2795 10.257 5.9392 10.693 12.809 0.0759 1.1939 0.0108 2.3967 0.0108 3.8548zm-10.304-5.3367c-0.2897-3.5273-2.1463-5.3857-5.2907-5.4334-3.372-0.0512-5.7306 2.0597-6.0152 5.4334h11.306z"></path><path d="m167.69 32.631h-21.701c-0.1 4.3657 3.599 7.0148 8.275 6.0913 1.844-0.364 3.393-1.2156 4.554-2.7418 0.255-0.3353 0.793-0.7727 1.098-0.7055 2.611 0.5734 5.199 1.2524 7.908 1.9286-2.849 5.2782-7.195 8.0245-12.91 8.4444-2.494 0.1833-5.105 0.0921-7.538-0.4399-7.772-1.6989-12.239-8.4277-11.241-16.51 0.977-7.9155 6.058-12.732 14.12-13.172 2.233-0.1217 4.541-0.0277 6.729 0.4018 6.4 1.2565 10.237 5.894 10.694 12.633 0.085 1.2499 0.012 2.5104 0.012 4.0691zm-10.304-5.4025c-0.205-3.421-2.085-5.3272-5.244-5.3986-3.366-0.0762-5.662 1.9524-6.075 5.3986h11.319z"></path><path d="m249.7 29.207c0-1.1976 0.098-2.2875-0.022-3.3532-0.205-1.8215-1.496-2.9089-3.651-3.1782-3.741-0.4674-7.189 0.5367-10.659 2.27-1.059-2.1233-2.096-4.2029-3.188-6.3925 6.375-2.9906 12.849-4.4833 19.716-2.367 4.897 1.5095 6.996 4.5393 7 9.6621 5e-3 5.8073 1e-3 11.615 1e-3 17.422v1.7559h-9.091v-3.3567c-0.957 0.8407-1.598 1.5835-2.396 2.0751-4.217 2.5992-8.643 2.9101-13.004 0.5413-3.63-1.9722-4.673-5.3849-4.157-9.2753 0.464-3.4966 2.542-5.7666 5.931-6.7349 4.033-1.1519 8.052-0.8878 12.02 0.3962 0.461 0.1494 0.914 0.3255 1.5 0.5353zm-4.746 3.5686c-0.979 0.0547-1.643 0.0489-2.295 0.1364-1.856 0.2492-2.824 1.1629-2.974 2.7439-0.167 1.7684 0.678 3.0625 2.391 3.6605 2.828 0.987 6.319-0.683 7.288-3.4861 0.609-1.7616 0.469-2.0993-1.307-2.532-1.115-0.2715-2.269-0.3866-3.103-0.5227z"></path><path d="m225.56 45.068h-9.821v-1.8598c0-4.9321 1e-3 -9.8642-2e-3 -14.796 0-0.6574-1e-3 -1.3161-0.041-1.9718-0.178-2.8686-1.427-4.2184-3.949-4.2919-2.67-0.0779-4.645 1.4776-4.989 4.0301-0.138 1.0259-0.11 2.0776-0.112 3.1176-0.01 5.1971-5e-3 10.394-5e-3 15.731h-9.425v-28.85h9.341c0.053 1.1452 0.104 2.263 0.162 3.5072 0.241-0.149 0.392-0.1973 0.476-0.3 3.281-4.0427 8.637-5.2536 13.372-3.0013 3.363 1.5997 4.834 4.5501 4.934 7.9783 0.2 6.8379 0.059 13.686 0.059 20.708z"></path><path d="m113.02 16.095c-3.63 4.6743-6.967 9.0266-10.378 13.322-0.704 0.8875-0.76 1.4534-0.023 2.3769 3.418 4.288 6.747 8.6458 10.396 13.348-1.475 0-2.63 0.0105-3.786-0.0022-2.197-0.0242-4.717 0.5923-6.502-0.2775-1.781-0.8679-2.8286-3.2293-4.195-4.9382-0.647-0.8092-1.2876-1.6234-2.02-2.5476-1.794 2.3043-3.4507 4.5511-5.2564 6.6723-0.479 0.5626-1.4045 1.0141-2.1446 1.0446-2.8903 0.1189-5.7884 0.0485-9.0319 0.0485 0.96-1.2631 1.7012-2.2538 2.4585-3.2322 2.6191-3.3836 5.2028-6.7956 7.8927-10.123 0.7502-0.9279 0.6703-1.4886-0.0319-2.3738-3.4069-4.2946-6.7402-8.6469-10.363-13.319 2.0727 0 3.8752 0.2165 5.6045-0.0451 3.5742-0.5409 6.07 0.6428 7.8088 3.8144 0.7747 1.4133 1.9774 2.5943 3.0852 4.0074 1.8064-2.3234 3.4625-4.5739 5.2703-6.697 0.478-0.5616 1.41-1.0015 2.153-1.0317 2.892-0.1176 5.792-0.0479 9.063-0.0479z"></path><path d="m326.41 27.205c-2.08-2.4787-4.39-3.6161-7.111-3.9988-3.256-0.4578-5.904 0.6036-7.727 3.3053-1.751 2.5949-1.786 5.413-0.188 8.0731 1.67 2.7797 4.377 3.7095 7.512 3.4489 2.903-0.2414 5.374-1.4202 7.509-4.0681 0 3.1838 0.024 5.9459-0.032 8.7063-7e-3 0.34-0.381 0.7641-0.698 0.9925-5.263 3.786-15.987 2.4778-20.995-2.5385-5.01-5.0175-5.679-13.629-1.45-19.337 2.977-4.0173 7.159-5.8814 12.033-6.2805 3.437-0.2814 6.813 0.0212 9.961 1.6613 0.894 0.4659 1.238 1.0452 1.209 2.0592-0.071 2.5028-0.023 5.0091-0.023 7.9766z"></path><path d="m133.62 24.016h-4.86v21.006h-9.15v-20.958h-4.981v-7.9592h4.879v-10.057h9.146v9.9584h4.966v8.0102z"></path><path d="m276.81 45.071h-9.15v-20.987h-4.971v-7.9562h4.828v-10.073h9.213v9.9809h4.93v7.909h-4.85v21.127z"></path><path d="m190.16 25.968c-1.717-1.5097-3.524-2.1606-5.549-1.1373-1.997 1.0096-2.622 2.9115-2.664 4.9542-0.089 4.434-0.054 8.8704-0.069 13.306-2e-3 0.5934 0 1.1867 0 1.9152h-9.34v-28.818h9.266v3.4686c0.699-0.7714 1.074-1.1931 1.458-1.6065 2.758-2.9703 7.001-3.5232 9.996-1.334 0.759 0.5549 1.084 1.0512 0.555 2.0262-1.275 2.3489-2.421 4.7665-3.653 7.2256z"></path><path d="m286.17 16.139h8.979v28.929h-8.979v-28.929z"></path><path d="m48.27 6.0396c-6.4361 8.295-12.636 16.285-18.95 24.423-1.7552-2.2631-3.3889-4.3695-5.0734-6.5414 4.514-5.8145 8.9714-11.574 13.469-17.302 0.2537-0.32317 0.832-0.54742 1.2634-0.55435 2.9626-0.04764 5.9263-0.02503 9.2913-0.02503z"></path><path d="m18.915 30.792c1.793 2.3114 3.4001 4.383 5.073 6.5396-2.2472 2.8971-4.459 5.7482-6.6705 8.5996-2.1501 2.7721-4.2819 5.5588-6.4691 8.3016-0.3344 0.4193-0.91737 0.8925-1.3974 0.9056-3.0096 0.0826-6.0226 0.0418-9.4512 0.0418 6.3983-8.2496 12.584-16.225 18.915-24.388z"></path><path d="m7.742 16.149c3.405 0 6.3776-0.0351 9.3479 0.0336 0.5106 0.0118 1.1674 0.3394 1.4902 0.736 1.8344 2.2542 3.5879 4.5735 5.4743 7.0065-1.6739 2.1577-3.3385 4.3032-5.1365 6.6208-3.7262-4.8001-7.3356-9.4499-11.176-14.397z"></path><path d="m40.473 45.072c-3.4474 0-6.4652 0.0229-9.4819-0.0263-0.4217-0.0069-0.9739-0.2595-1.2343-0.5829-1.8823-2.3382-3.705-4.7238-5.5752-7.1312 1.6993-2.1867 3.3381-4.2954 5.1417-6.6163 3.7042 4.7696 7.3007 9.4005 11.15 14.357z"></path></g><defs><clipPath id="a"><rect width="326.44" height="55.19" fill="#fff"></rect></clipPath></defs></svg> 