<?xml version="1.0" encoding="utf-8"?>
<!-- Generator: Adobe Illustrator 26.0.1, SVG Export Plug-In . SVG Version: 6.00 Build 0)  -->
<svg version="1.1" id="Calque_1" xmlns="http://www.w3.org/2000/svg" xmlns:xlink="http://www.w3.org/1999/xlink" x="0px" y="0px"
	 viewBox="0 0 60 60" style="enable-background:new 0 0 60 60;" xml:space="preserve">
<style type="text/css">
	.st0{fill:#647688;}
	.st1{fill-rule:evenodd;clip-rule:evenodd;fill:#647688;}
</style>
<g id="_x30_1-Atoms_x2F_03-Picto_x2F_01-Monochrome_x2F_02-Attach-crate">
	<g id="Group-25" transform="translate(22.000000, 23.000000)">
		<g id="Rectangle">
			<path class="st0" d="M11.8,7H4.2C-2,7-7,2-7-4.3V-8c0-6.2,5-11.2,11.2-11.2h7.5C18-19.3,23-14.2,23-8v3.8C23,2,18,7,11.8,7z
				 M4.2-11.8c-2.1,0-3.8,1.7-3.8,3.8v3.8c0,2.1,1.7,3.8,3.8,3.8h7.5c2.1,0,3.8-1.7,3.8-3.8V-8c0-2.1-1.7-3.8-3.8-3.8H4.2z"/>
		</g>
		<g id="Rectangle_00000022537617086586492170000017888853080502567101_">
			<path class="st1" d="M-18.2-4.2h52.5c2.1,0,3.8,1.7,3.8,3.8v30c0,2.1-1.7,3.8-3.8,3.8h-52.5c-2.1,0-3.8-1.7-3.8-3.8v-30
				C-22-2.6-20.3-4.2-18.2-4.2z"/>
		</g>
	</g>
</g>
</svg>
