<?xml version="1.0" encoding="UTF-8"?>
<svg width="30px" height="30px" viewBox="0 0 30 30" version="1.1" xmlns="http://www.w3.org/2000/svg" xmlns:xlink="http://www.w3.org/1999/xlink">
    <title>01 Atoms / 02 Symboles / 04 Target / 02 Small</title>
    <defs>
        <polygon id="path-1" points="0 0 28.010898 0 28.010898 28.0078395 0 28.0078395"></polygon>
    </defs>
    <g id="01-Atoms-/-02-Symboles-/-04-Target-/-02-Small" stroke="none" stroke-width="1" fill="none" fill-rule="evenodd">
        <g id="Group-18">
            <g id="Group-3" transform="translate(0.000000, 1.992161)">
                <mask id="mask-2" fill="white">
                    <use xlink:href="#path-1"></use>
                </mask>
                <g id="Clip-2"></g>
                <path d="M23.2123552,6.11873198 C25.0338772,8.24174798 26.1426703,10.993356 26.1426703,14.0036862 C26.1426703,20.6959034 20.6977208,26.1402766 14.0057292,26.1402766 C7.31280359,26.1402766 1.86785403,20.6959034 1.86785403,14.0036862 C1.86785403,7.3124031 7.31280359,1.86802991 14.0057292,1.86802991 C16.3064516,1.86802991 18.4530452,2.52370841 20.2885789,3.6407903 L21.6467804,2.28366657 C19.4469423,0.844349521 16.8248848,0 14.0057292,0 C6.28247602,0 -0.000373645535,6.2821846 -0.000373645535,14.0036862 C-0.000373645535,21.7251879 6.28247602,28.0083065 14.0057292,28.0083065 C21.7280483,28.0083065 28.010898,21.7251879 28.010898,14.0036862 C28.010898,10.4787138 26.6909951,7.2629003 24.5331922,4.79803483 L23.2123552,6.11873198 Z" id="Fill-1" fill="#FDC300" mask="url(#mask-2)"></path>
            </g>
            <path d="M4.01510151,15.996127 C4.01510151,21.5040132 8.4969797,25.9854169 14.005449,25.9854169 C19.5139183,25.9854169 23.9957965,21.5040132 23.9957965,15.996127 C23.9957965,13.5779622 23.1308071,11.3578087 21.6950741,9.62801298 L20.3639619,10.9580503 C21.4652821,12.3441285 22.1275688,14.0926045 22.1275688,15.996127 C22.1275688,20.4737947 18.4835907,24.117387 14.005449,24.117387 C9.52637315,24.117387 5.88332918,20.4737947 5.88332918,15.996127 C5.88332918,11.5184592 9.52637315,7.8748669 14.005449,7.8748669 C15.1899053,7.8748669 16.3127102,8.13545708 17.3280919,8.5931244 L18.7255262,7.19583803 C17.3187508,6.4383519 15.712075,6.00683699 14.005449,6.00683699 C8.4969797,6.00683699 4.01510151,10.4882408 4.01510151,15.996127" id="Fill-4" fill="#FDC300"></path>
            <path d="M8.08139245,15.996127 C8.08139245,19.2623773 10.7389463,21.9187158 14.0055424,21.9187158 C17.2721385,21.9187158 19.9296924,19.2623773 19.9296924,15.996127 C19.9296924,14.6997142 19.5056047,13.503241 18.7966123,12.5262614 L17.4458837,13.875913 C17.8298045,14.4951649 18.0614647,15.2171585 18.0614647,15.996127 C18.0614647,18.2321588 16.2418109,20.0506859 14.0055424,20.0506859 C11.7692739,20.0506859 9.94962013,18.2321588 9.94962013,15.996127 C9.94962013,13.7694353 11.7543281,11.9593143 13.977519,11.9434361 L15.618757,10.3023718 C15.1059285,10.1566654 14.5650766,10.0726041 14.0055424,10.0726041 C10.7389463,10.0726041 8.08139245,12.7298766 8.08139245,15.996127" id="Fill-6" fill="#FDC300"></path>
            <path d="M14.0053556,16.0522613 C13.9745298,16.0522613 13.9493088,16.0270428 13.9493088,15.9962204 L14.0053556,15.9392454 L14.0053556,16.0522613 Z M12.1931747,15.9962204 C12.1931747,16.9946823 13.0058538,17.8072754 14.0053556,17.8072754 C15.0048574,17.8072754 15.8175364,16.9946823 15.8175364,15.9962204 C15.8175364,15.6739852 15.7259933,15.3741664 15.5774692,15.1126422 L14.8890273,14.4242732 C14.6265413,14.2757648 14.3276249,14.1842313 14.0053556,14.1842313 C13.0058538,14.1842313 12.1931747,14.9968243 12.1931747,15.9962204 L12.1931747,15.9962204 Z" id="Fill-8" fill="#FFFFFF"></path>
            <path d="M14.8893075,14.4240864 L15.5777494,15.1124554 C15.4142795,14.8238448 15.1779487,14.586605 14.8893075,14.4240864" id="Fill-10" fill="#FEFEFE"></path>
            <polygon id="Fill-12" fill="#FFFFFF" points="14.6657741 16.6565689 13.3449371 15.3358718 27.3566447 1.32564743 28.6774816 2.64634458"></polygon>
            <polygon id="Fill-14" fill="#FDC300" points="23.8933242 4.77842052 24.0549259 1.97544163 26.0315108 0 27.3523477 1.32069715"></polygon>
            <polygon id="Fill-16" fill="#FDC300" points="25.2210736 6.10602938 28.0243492 5.94444479 30 3.96900316 28.679163 2.64830601"></polygon>
        </g>
    </g>
</svg>