<?xml version="1.0" encoding="UTF-8"?>
<svg width="30px" height="30px" viewBox="0 0 30 30" version="1.1" xmlns="http://www.w3.org/2000/svg" xmlns:xlink="http://www.w3.org/1999/xlink">
    <title>01 Atoms / 02 Symboles / 06 Diagram / 02 Small</title>
    <g id="01-Atoms-/-02-Symboles-/-06-Diagram-/-02-Small" stroke="none" stroke-width="1" fill="none" fill-rule="evenodd">
        <g id="Group-15" transform="translate(0.000000, -0.000000)">
            <path d="M15.0002501,-9.9475983e-14 C23.2709719,-9.9475983e-14 30,6.72902806 30,14.9997499 C30,19.4927717 28.0041018,23.5205843 24.8636887,26.2718223 L24.8636887,26.2718223 L23.4490521,24.8581862 C26.2283027,22.4721125 27.9990996,18.9415237 27.9990996,14.9997499 C27.9990996,8.16799192 22.7020854,2.55121216 16.0002195,2.03897469 L16.0002001,14.9997499 L13.9992997,14.9997499 L13.9992997,1.0004502 L14.0062997,1 L14.0068031,0.0500225101 C14.2269021,0.0360162073 14.4461119,0.0184527482 14.6671002,0.00830003131 Z" id="Combined-Shape" fill="#FFFFFF"></path>
            <path d="M19.9469761,27.0152569 C18.4202891,27.6455405 16.7515382,27.9986994 14.9997499,27.9986994 C7.83252464,27.9986994 2.00090041,22.1670752 2.00090041,14.9998499 C2.00090041,9.60142064 5.31038968,4.9633335 10.004502,3.00145065 L10.004502,0.873493072 C4.18588365,2.93742184 0,8.48191686 0,14.9998499 C0,23.2705718 6.72902806,29.9995998 14.9997499,29.9995998 C17.3117903,29.9995998 19.4937722,29.4583563 21.4516532,28.519934 L19.9469761,27.0152569 Z" id="Fill-7" fill="#FFFFFF"></path>
            <path d="M24.8490821,23.4335451 L17.4147366,16.0002001 L27.9434746,16.0002001 C27.7253764,18.8304737 26.5968686,21.3996298 24.8490821,23.4335451 L24.8490821,23.4335451 Z M13.9991996,14.0003001 L13.9991996,15.4139363 L14.5854635,16.0002001 L24.3048372,25.7185734 L24.3068381,25.715572 L24.8630884,26.2718223 C28.0035016,23.5205843 29.9993997,19.4927717 29.9993997,14.9997499 C29.9993997,14.6625982 29.9713871,14.3324496 29.9493772,14.0003001 L13.9991996,14.0003001 Z" id="Fill-13" fill="#FDC300"></path>
        </g>
    </g>
</svg>