<?xml version="1.0" encoding="UTF-8"?> <svg xmlns="http://www.w3.org/2000/svg" fill="none" viewBox="0 0 32 32"><path d="m0 16c0-8.8366 7.1634-16 16-16 8.8366 0 16 7.1634 16 16 0 8.8366-7.1634 16-16 16-8.8366 0-16-7.1634-16-16zm8.2-2.7v10.7h3.4v-10.7h-3.4zm-0.2-3.4c0 1.1 0.8 1.9 1.9 1.9s1.9-0.8 1.9-1.9-0.8-1.9-1.9-1.9c-1 0-1.9 0.8-1.9 1.9zm12.6 14.1h3.2v-6.6c0-3.3-2-4.4-3.9-4.4-1.7 0-2.9 1.1-3.2 1.8v-1.5h-3.2v10.7h3.4v-5.7c0-1.5 1-2.3 2-2.3s1.7 0.5 1.7 2.2v5.8z" clip-rule="evenodd" fill="#fff" fill-rule="evenodd"></path></svg> 