<?xml version="1.0" encoding="utf-8"?>
<!-- Generator: Adobe Illustrator 26.0.1, SVG Export Plug-In . SVG Version: 6.00 Build 0)  -->
<svg version="1.1" id="Calque_1" xmlns="http://www.w3.org/2000/svg" xmlns:xlink="http://www.w3.org/1999/xlink" x="0px" y="0px"
	 viewBox="0 0 22.7 22.7" style="enable-background:new 0 0 22.7 22.7;" xml:space="preserve">
<style type="text/css">
	.st0{fill:#FFFFFF;}
</style>
<path class="st0" d="M15.2,11.3c0-1-0.3-1.9-1-2.6c-0.7-0.7-1.6-1-2.6-1S9.6,8,8.9,8.7c-0.7,0.7-1,1.6-1,2.6s0.3,1.9,1,2.6
	c0.7,0.7,1.6,1,2.6,1s1.9-0.3,2.6-1C14.8,13.3,15.2,12.4,15.2,11.3z M17.1,11.3c0,1.6-0.5,3-1.7,4.2c-1,1.2-2.4,1.7-4.2,1.7
	c-1.6,0-3-0.5-4.2-1.7c-1-1.2-1.7-2.4-1.7-4.2c0-1.6,0.5-3,1.7-4.2s2.4-1.7,4.2-1.7c1.6,0,3,0.5,4.2,1.7
	C16.6,8.4,17.1,9.8,17.1,11.3z M18.8,5.2c0,0.3-0.2,0.7-0.3,1c-0.3,0.3-0.5,0.3-1,0.3s-0.7-0.2-1-0.3C16,5.9,16,5.8,16,5.2
	s0.2-0.7,0.3-1c0.3-0.3,0.5-0.3,1-0.3c0.3,0,0.7,0.2,1,0.3C18.7,4.5,18.8,4.9,18.8,5.2L18.8,5.2z M11.3,2.1c0,0-0.5,0-1,0
	c-0.7,0-1.2,0-1.6,0c-0.3,0-0.9,0-1.4,0s-1,0-1.6,0.2c-0.5,0.2-0.9,0.2-1,0.2C4.2,2.6,3.7,3,3.3,3.3C3,3.7,2.6,4.2,2.4,4.7
	c0,0.2-0.2,0.5-0.2,1c0,0.3-0.2,0.9-0.2,1.6c0,0.5,0,1,0,1.4s0,0.9,0,1.6c0,0.7,0,1,0,1s0,0.5,0,1c0,0.7,0,1.2,0,1.6s0,0.9,0,1.4
	c0,0.5,0,1,0.2,1.6c0,0.3,0.2,0.7,0.3,1c0.2,0.5,0.5,0.9,0.9,1.2s0.9,0.7,1.2,0.9c0.3,0.2,0.7,0.2,1,0.3c0.3,0,0.9,0.2,1.6,0.2
	c0.5,0,1,0,1.4,0c0.3,0,0.9,0,1.6,0c0.7,0,1,0,1,0s0.5,0,1,0c0.7,0,1.2,0,1.6,0c0.3,0,0.9,0,1.4,0c0.5,0,1,0,1.6-0.2
	c0.3,0,0.7-0.2,1-0.3c0.5-0.2,0.9-0.5,1.2-0.9s0.7-0.9,0.9-1.2s0.2-0.7,0.3-1c0-0.3,0.2-0.9,0.2-1.6c0-0.5,0-1,0-1.4
	c0-0.3,0-0.9,0-1.6c0-0.7,0-1,0-1s0-0.5,0-1c0-0.7,0-1.2,0-1.6s0-0.9,0-1.4s0-1-0.2-1.6c0-0.3-0.2-0.7-0.3-1
	c-0.2-0.5-0.5-0.9-0.9-1.2s-0.7-0.9-1.2-1c-0.3-0.2-0.7-0.2-1-0.3c-0.3,0-0.9-0.2-1.6-0.2c-0.5,0-1,0-1.4,0c-0.3,0-0.9,0-1.6,0
	C11.9,2.1,11.3,2.1,11.3,2.1L11.3,2.1z M22.7,11.3c0,2.3,0,3.8,0,4.7c-0.2,2.1-0.7,3.7-1.9,4.7c-1,1-2.8,1.7-4.7,1.9
	c-0.9,0-2.4,0-4.7,0s-3.8,0-4.7,0C4.5,22.5,3,22,1.9,20.8c-1-1-1.7-2.8-1.9-4.7c0-0.9,0-2.4,0-4.7s0-3.8,0-4.7
	C0.2,4.5,0.7,3,1.9,1.9S4.7,0.2,6.6,0c0.9,0,2.4,0,4.7,0s3.8,0,4.7,0c2.1,0.2,3.7,0.7,4.7,1.9s1.7,2.8,1.9,4.7
	C22.7,7.5,22.7,9.1,22.7,11.3L22.7,11.3z"/>
</svg>
