<?xml version="1.0" encoding="UTF-8"?>
<svg width="53px" height="58px" viewBox="0 0 53 58" version="1.1" xmlns="http://www.w3.org/2000/svg" xmlns:xlink="http://www.w3.org/1999/xlink">
    <title>01 Atoms / 01 Logo Apec / 01 Texte / 01 Vertical / 01 White</title>
    <g id="01-Atoms-/-01-Logo-Apec-/-01-Texte-/-01-Vertical-/-01-White" stroke="none" stroke-width="1" fill="none" fill-rule="evenodd">
        <g id="Group-22-Copy">
            <g id="Group" transform="translate(0.000000, 42.999991)" fill="#FFFFFF">
                <path d="M20.0204638,10.2953813 C17.8927353,10.2953813 16.1620055,8.47249799 16.1620055,6.23214824 C16.1620055,3.84091343 17.7760914,2.10493561 20,2.10493561 C22.619884,2.10493561 23.79809,4.51856325 23.79809,6.23214824 C23.79809,8.74174517 21.8371419,10.2953813 20.0204638,10.2953813 M20,9.18883772e-06 C18.3823329,9.18883772e-06 17.0040928,0.694720215 16.2024216,1.90926489 L16.2024216,0.270322689 L14,0.270322689 L14,12.1305274 L14,15.0000092 L16.2029332,15.0000092 L16.2029332,12.1305274 L16.2024216,12.1305274 L16.2024216,10.3518966 C16.9780014,11.6554794 18.3562415,12.4008409 20,12.4008409 C21.7859823,12.4008409 23.3182128,11.7402523 24.4309345,10.4910521 C25.4280355,9.37141034 26,7.82630477 26,6.25294158 C26,3.22191151 23.8973397,9.18883772e-06 20,9.18883772e-06" id="Fill-4"></path>
                <path d="M6.00025579,2.03741406 C3.38099501,2.03741406 2.20181609,4.37251016 2.20181609,6.03070698 C2.20181609,8.45918628 4.16319222,9.96312024 5.98030439,9.96312024 C8.10691904,9.96312024 9.83859829,8.19864198 9.83859829,6.03070698 C9.83859829,3.71676399 8.22406957,2.03741406 6.00025579,2.03741406 M6.00025579,12.0000092 C4.21434966,12.0000092 2.68218442,11.3607728 1.56951017,10.1519504 C0.57245172,9.06849881 0,7.57385157 0,6.05134416 C0,3.11777006 2.10308224,9.18883772e-06 6.00025579,9.18883772e-06 C7.61785395,9.18883772e-06 8.9960353,0.67226509 9.79767234,1.848068 L9.79767234,0.261585353 L12,0.261585353 L12,11.738433 L9.79767234,11.738433 L9.79767234,10.0172928 C9.02161402,11.27874 7.64394424,12.0000092 6.00025579,12.0000092" id="Fill-1"></path>
                <path d="M34.0860503,2.03741434 L34.0876053,2.03741434 C35.5623347,2.03999945 36.5835005,2.76281519 37.2013836,3.68942267 L30.2564192,6.4965893 C30.2403501,6.34335856 30.2310197,6.18600038 30.2310197,6.02451478 C30.2336115,4.36632078 31.4320558,2.03329238 34.0860503,2.03741434 M34.094344,9.96311248 C34.0876053,9.96311248 34.0585773,9.96311248 34.052357,9.96259655 C32.8948629,9.96053284 31.6813862,9.36411956 30.9406522,8.31833262 L40,4.6552407 C39.4391363,2.21077176 37.4082085,0.00620954633 34.0907155,9.18883772e-06 L34.0901971,9.18883772e-06 C30.1408253,-0.00617273619 28.0051892,3.10797132 28,6.04102449 C27.9979321,7.56352931 28.5738282,9.05972178 29.5825534,10.1447193 C30.7079093,11.3556033 32.2593557,11.9969024 34.0694628,12.0000092 L34.0704995,12.0000092 C35.8800883,12.0030935 37.4336081,11.3664378 38.5631108,10.1596812 C39.2131321,9.46472561 39.6848382,8.59951362 39.9403888,7.66619907 L37.5901523,7.66619907 C36.9447962,9.1180217 35.4778423,9.96466026 34.094344,9.96311248" id="Fill-7"></path>
                <path d="M50.6384475,7.66601658 C49.990883,9.1158403 48.5196666,9.96251671 47.1312842,9.96251671 L47.0890857,9.96251671 C45.2391248,9.96251671 43.2422506,8.45954999 43.2422506,6.03045033 C43.2422506,4.3721822 44.4415212,2.03698571 47.1099245,2.03698571 L47.1109664,2.03698571 C48.9265434,2.03698571 50.0617348,3.11945196 50.6019797,4.33348584 L52.9760354,4.33348584 C52.3117999,2.01737956 50.3024225,9.18883772e-06 47.1109664,9.18883772e-06 L47.1099245,9.18883772e-06 C43.1406616,9.18883772e-06 41,3.11738816 41,6.05108839 C41,7.57366127 41.5819224,9.06837276 42.597291,10.1518709 C43.7309195,11.3607453 45.2901797,12.0000092 47.1099245,12.0000092 L47.1109664,12.0000092 C48.9291482,12.0000092 50.4894504,11.3607453 51.622558,10.1518709 C52.2727273,9.4584321 52.7442042,8.59576119 53,7.66601658 L50.6384475,7.66601658 Z" id="Fill-9"></path>
            </g>
            <polygon id="Fill-12" fill="#FFFFFF" points="18.479493 11 8 37 14.430984 37 24 13.2601704"></polygon>
            <polygon id="Fill-14" fill="#FFFFFF" points="26.4016556 7.41688538 29.4635674 15.1258309 31.7967643 21 37 18.2571071 33.9390954 10.5486767 29.7486072 0 23.054704 0 21 5.17260664"></polygon>
            <polygon id="Fill-16" fill="#FFFFFF" points="35 27.567856 38.8008533 37 45 37 40.1647152 25"></polygon>
            <polygon id="Fill-18" fill="#FDC300" points="26.7787304 7.35518474 26.7787304 7.35518474 8 0 8 6.38259833 30 15"></polygon>
            <polygon id="Fill-20" fill="#FDC300" points="34.4787046 11 37.6023667 18.719024 32.2936825 21.4649871 18.3707807 28.6682404 15 37 45 22.1468359 45 18.719024 45 15.2906963"></polygon>
        </g>
    </g>
</svg>