<?xml version="1.0" encoding="utf-8"?>
<!-- Generator: Adobe Illustrator 26.0.1, SVG Export Plug-In . SVG Version: 6.00 Build 0)  -->
<svg version="1.1" id="Calque_1" xmlns="http://www.w3.org/2000/svg" xmlns:xlink="http://www.w3.org/1999/xlink" x="0px" y="0px"
	 viewBox="0 0 60 60" style="enable-background:new 0 0 60 60;" xml:space="preserve">
<style type="text/css">
	.st0{fill-rule:evenodd;clip-rule:evenodd;fill:#647688;}
	.st1{fill-rule:evenodd;clip-rule:evenodd;fill:#FFFFFF;}
</style>
<g id="_x30_1-Atoms_x2F_03-Picto_x2F_01-Monochrome_x2F_03-Pin">
	<g id="Group-6" transform="translate(23.000000, 21.000000)">
		<path id="Fill-1" class="st0" d="M7,39c-0.5,0-1-0.2-1.4-0.6C4.7,37.6-16.3,18.3-16.3,2.6C-16.3-10.4-5.9-21,7-21
			S30.3-10.4,30.3,2.6c0,15.8-21,35.1-21.9,35.9C8,38.8,7.5,39,7,39"/>
		<path id="Fill-4" class="st1" d="M7-6.3c-3.9,0-7,3.1-7,7s3.1,7,7,7s7-3.1,7-7S10.9-6.3,7-6.3 M7,12.3C0.6,12.3-4.7,7.1-4.7,0.7
			C-4.7-5.8,0.6-11,7-11c6.4,0,11.7,5.2,11.7,11.7C18.7,7.1,13.4,12.3,7,12.3"/>
	</g>
</g>
</svg>
