<svg fill="none" height="160" viewBox="0 0 160 160" width="160" xmlns="http://www.w3.org/2000/svg"><path d="m134.601 154.056c-4.659 1.713-9.648 2.661-14.592 3.349-26.6804 3.465-53.6036 3.461-80.2836-.041-9.7909-1.338-20.2523-4.024-27.1004-11.511-6.35122-6.824-8.72077-16.505-9.97156-25.59-3.408393-27.1679-4.91281-71.3363 4.15887-96.9576 5.56599-14.07543 19.65129-19.1587 33.66359-20.75699 28.4554-3.523188 57.3625-3.61353 85.6821 1.09101 7.825 1.53227 15.746 4.55166 21.177 10.45838 16.858 16.3373 13.366 87.1172 9.349 110.4352-2.154 13.432-8.578 24.937-22.055 29.513z" fill="#121437" fill-opacity=".05"/><path clip-rule="evenodd" d="m89.2648 35.543c-3.1317-6.2234-11.309-5.8397-14.6307-.1514-.039.067-.0755.1354-.1093.2051l-4.8313 9.975c-.099.1814-.6909.7394-1.7125.9615l-10.8948 1.6006-.0196.0029c-3.2696.5025-5.6696 2.7755-6.6159 5.4854-.9546 2.7337-.4546 6.026 2.0944 8.3648l7.7019 7.6944c.1004.1003.2078.1934.3213.2785.2629.197.5948.9143.4722 1.5272l-1.9479 10.6996-.0135.0806c-.9996 6.4908 5.5814 11.7 11.7343 8.6264l9.903-5.1057c.8154-.2998 1.5681-.2998 2.3835 0l9.8686 5.0884.0342.0173c6.153 3.0736 12.7333-2.1356 11.7343-8.6262l-.013-.0809-1.938-10.6479-.01-.0513c-.075-.3743.008-1.0034.755-1.7672l8.023-7.3737c.03-.0282.061-.057.09-.0865 4.639-4.6348 2.067-12.7802-4.571-13.8005l-10.9146-1.6035c-.9592-.2089-1.4724-.7098-1.6141-1.0638-.0357-.0892-.0757-.1765-.1198-.2619z" fill="#ffcc52" fill-rule="evenodd"/><path d="m58.5 93.5c-8.8 2.4-14 16.667-15.5 23.5 5.3333 4.167 16.8 11.7 20 6.5 4-6.5 16-3.5 26.5-8.5s14-11.5 25.5-26.0001c8-10.087-1-10.9999-5-7.4998l-8.735 8.7353c-.508.5074-1.081.9442-1.7051 1.2987l-14.6273 8.311c-1.0131.5759-2.1672-.8889-1.3917-1.7586 3.3148-3.7177 7.012-8.1364 8.4591-10.5865 2-2.5-1.5-7.1251-5-4.5001-14 10.5-17.5 7.5001-28.5 10.5001z" fill="#580003"/><path d="m36.1042 117.759c.7556-2.076 3.051-3.147 5.1269-2.391l22.5526 8.209c2.0759.755 3.1463 3.05 2.3907 5.126l-4.1042 11.277-30.0702-10.945z" fill="#e6e1d8"/><path d="m60.1153 159.357c-6.807-.438-13.6063-1.103-20.3899-1.993-6.7773-.926-13.876-2.498-19.8751-5.861l9.8748-21.793c.4356-.961 1.5432-1.419 2.5302-1.045l29.691 11.247c.9006.341 1.4302 1.275 1.2601 2.223z" fill="#ffcc52"/></svg>