<svg width="863" height="200" viewBox="0 0 863 200" fill="none" xmlns="http://www.w3.org/2000/svg" aria-label="Welcome Solutions logo">
<path d="M306.08 83.04C302.347 74.9333 297.92 67.8933 292.8 61.92C287.787 55.9466 282.347 52.96 276.48 52.96C266.56 52.96 261.6 57.4933 261.6 66.56C261.6 69.5466 262.187 71.9466 263.36 73.76C264.533 75.4666 266.56 77.2266 269.44 79.04C272.427 80.8533 277.44 83.4133 284.48 86.72C290.667 89.8133 295.733 92.7466 299.68 95.52C303.627 98.2933 306.72 101.6 308.96 105.44C311.307 109.28 312.48 113.867 312.48 119.2C312.48 125.6 310.773 131.307 307.36 136.32C304.053 141.227 299.36 145.067 293.28 147.84C287.2 150.613 280.16 152 272.16 152C266.827 152 261.067 151.68 254.88 151.04C248.8 150.4 243.84 149.44 240 148.16C239.68 148.053 239.52 147.84 239.52 147.52L236.8 111.68C236.8 111.36 236.96 111.147 237.28 111.04C237.6 110.933 237.867 111.093 238.08 111.52C237.12 110.56 239.04 113.653 243.84 120.8C248.747 127.84 253.867 133.973 259.2 139.2C264.64 144.427 269.813 147.04 274.72 147.04C278.88 147.04 282.4 145.867 285.28 143.52C288.267 141.173 289.76 137.333 289.76 132C289.76 128.8 289.067 126.133 287.68 124C286.4 121.867 284.16 119.787 280.96 117.76C277.76 115.627 272.907 113.013 266.4 109.92C258.187 106.08 251.627 101.6 246.72 96.48C241.92 91.2533 239.52 84.64 239.52 76.64C239.52 67.5733 242.88 60.5333 249.6 55.52C256.32 50.4 265.44 47.84 276.96 47.84C284.107 47.84 291.733 48.64 299.84 50.24L303.84 51.04C303.947 51.04 304.053 51.1466 304.16 51.36C304.267 51.4666 304.32 51.5733 304.32 51.68L307.36 82.72C307.36 83.1466 307.2 83.4133 306.88 83.52C306.56 83.52 306.293 83.36 306.08 83.04Z" fill="white"/>
<path d="M360.386 154.4C350.04 154.4 341.613 152.48 335.106 148.64C328.706 144.8 324.066 139.787 321.186 133.6C318.306 127.413 316.866 120.64 316.866 113.28C316.866 105.067 318.733 97.6533 322.466 91.04C326.2 84.32 331.32 79.0933 337.826 75.36C344.333 71.6266 351.64 69.76 359.746 69.76C368.813 69.76 376.546 71.5733 382.946 75.2C389.453 78.72 394.306 83.52 397.506 89.6C400.813 95.68 402.466 102.453 402.466 109.92C402.466 118.347 400.653 125.973 397.026 132.8C393.4 139.52 388.386 144.8 381.986 148.64C375.586 152.48 368.386 154.4 360.386 154.4ZM361.186 149.76C364.92 149.76 367.64 147.413 369.346 142.72C371.16 138.027 372.066 131.04 372.066 121.76C372.066 108.96 371 97.8666 368.866 88.48C366.84 79.0933 363.266 74.4 358.146 74.4C354.413 74.4 351.693 76.6933 349.986 81.28C348.28 85.8666 347.426 92.8 347.426 102.08C347.426 114.987 348.44 126.187 350.466 135.68C352.493 145.067 356.066 149.76 361.186 149.76Z" fill="white"/>
<path d="M437.765 133.28C437.765 140.533 439.258 146.347 442.245 150.72C442.565 151.04 442.618 151.36 442.405 151.68C442.298 151.893 442.032 152 441.605 152H406.245C405.818 152 405.552 151.893 405.445 151.68C405.338 151.467 405.392 151.147 405.605 150.72C406.778 148.8 407.792 146.08 408.645 142.56C409.498 139.04 409.925 135.893 409.925 133.12V77.44C409.925 69.8666 406.938 63.0933 400.965 57.12C400.645 56.8 400.538 56.5333 400.645 56.32C400.645 56 400.858 55.7333 401.285 55.52L437.125 44.96C437.552 44.8533 437.872 44.9066 438.085 45.12C438.298 45.2266 438.352 45.4933 438.245 45.92C437.818 48.2666 437.605 51.3066 437.605 55.04L437.765 133.28Z" fill="white"/>
<path d="M469.873 155.04C463.259 155.04 458.139 152.64 454.513 147.84C450.993 142.933 449.233 136.053 449.233 127.2V96.16C449.233 88.48 447.739 83.4666 444.753 81.12C444.433 80.8 444.326 80.5333 444.433 80.32C444.539 80 444.753 79.7866 445.073 79.68C465.019 74.1333 475.259 71.36 475.793 71.36C476.326 71.36 476.593 71.6266 476.593 72.16V126.24C476.593 130.187 477.286 133.227 478.673 135.36C480.059 137.387 482.033 138.4 484.593 138.4C487.686 138.4 490.033 136.96 491.633 134.08C493.339 131.2 494.193 126.933 494.193 121.28V96.16C494.193 89.0133 492.753 84 489.873 81.12C489.659 80.9066 489.553 80.64 489.553 80.32C489.659 80 489.873 79.7866 490.193 79.68L520.273 71.52C520.699 71.4133 521.019 71.4133 521.233 71.52C521.553 71.6266 521.713 71.84 521.713 72.16V132.48C521.713 138.347 523.366 144.48 526.673 150.88C526.779 151.2 526.779 151.467 526.673 151.68C526.566 151.893 526.353 152 526.033 152H495.633C494.993 152 494.673 151.68 494.673 151.04V136.48C492.219 142.453 488.859 147.04 484.593 150.24C480.326 153.44 475.419 155.04 469.873 155.04Z" fill="white"/>
<path d="M558.668 152.32C551.308 152.32 545.761 150.453 542.028 146.72C538.294 142.987 536.428 137.6 536.428 130.56V79.04H524.748C524.321 79.04 524.054 78.88 523.948 78.56C523.841 78.1333 524.001 77.8133 524.428 77.6L562.988 52.32C563.308 52.1066 563.628 52.0533 563.948 52.16C564.268 52.2666 564.428 52.5333 564.428 52.96C564.001 63.2 563.788 70.2933 563.788 74.24H581.068C581.921 74.24 582.188 74.6666 581.868 75.52L581.068 78.24C580.854 78.7733 580.428 79.04 579.788 79.04H563.788V129.28C563.788 136.427 566.988 140 573.388 140C577.121 140 579.841 139.147 581.548 137.44C581.654 137.333 581.868 137.12 582.188 136.8C582.508 136.373 582.828 136.267 583.148 136.48C583.468 136.693 583.521 137.067 583.308 137.6C581.601 141.653 578.668 145.12 574.508 148C570.348 150.88 565.068 152.32 558.668 152.32Z" fill="white"/>
<path d="M600.403 66.4C596.136 66.4 592.509 64.9066 589.523 61.92C586.536 58.9333 585.043 55.3066 585.043 51.04C585.043 46.7733 586.536 43.2 589.523 40.32C592.509 37.3333 596.136 35.84 600.403 35.84C604.669 35.84 608.243 37.3333 611.123 40.32C614.109 43.2 615.603 46.7733 615.603 51.04C615.603 55.3066 614.109 58.9333 611.123 61.92C608.243 64.9066 604.669 66.4 600.403 66.4ZM616.403 133.28C616.403 140.533 617.896 146.347 620.883 150.72C621.203 151.04 621.256 151.36 621.043 151.68C620.936 151.893 620.669 152 620.243 152H584.883C584.456 152 584.189 151.893 584.083 151.68C583.976 151.467 584.029 151.147 584.243 150.72C585.416 148.8 586.429 146.08 587.283 142.56C588.136 139.04 588.563 135.893 588.563 133.12V102.72C588.563 95.1466 585.576 88.3733 579.603 82.4C579.283 82.08 579.176 81.8133 579.283 81.6C579.283 81.28 579.496 81.0133 579.923 80.8L615.763 70.24C616.189 70.1333 616.509 70.1866 616.723 70.4C616.936 70.5066 616.989 70.7733 616.883 71.2C616.456 73.5466 616.243 76.5866 616.243 80.32L616.403 133.28Z" fill="white"/>
<path d="M667.23 154.4C656.883 154.4 648.457 152.48 641.95 148.64C635.55 144.8 630.91 139.787 628.03 133.6C625.15 127.413 623.71 120.64 623.71 113.28C623.71 105.067 625.577 97.6533 629.31 91.04C633.043 84.32 638.163 79.0933 644.67 75.36C651.177 71.6266 658.483 69.76 666.59 69.76C675.657 69.76 683.39 71.5733 689.79 75.2C696.297 78.72 701.15 83.52 704.35 89.6C707.657 95.68 709.31 102.453 709.31 109.92C709.31 118.347 707.497 125.973 703.87 132.8C700.243 139.52 695.23 144.8 688.83 148.64C682.43 152.48 675.23 154.4 667.23 154.4ZM668.03 149.76C671.763 149.76 674.483 147.413 676.19 142.72C678.003 138.027 678.91 131.04 678.91 121.76C678.91 108.96 677.843 97.8666 675.71 88.48C673.683 79.0933 670.11 74.4 664.99 74.4C661.257 74.4 658.537 76.6933 656.83 81.28C655.123 85.8666 654.27 92.8 654.27 102.08C654.27 114.987 655.283 126.187 657.31 135.68C659.337 145.067 662.91 149.76 668.03 149.76Z" fill="white"/>
<path d="M795.771 150.88C795.878 151.2 795.878 151.467 795.771 151.68C795.665 151.893 795.451 152 795.131 152H758.491C758.278 152 758.118 151.893 758.011 151.68C757.905 151.467 757.905 151.2 758.011 150.88C761.318 144.267 762.971 138.027 762.971 132.16V99.36C762.971 95.4133 762.278 92.4266 760.891 90.4C759.505 88.2666 757.531 87.2 754.971 87.2C751.771 87.2 749.318 88.64 747.611 91.52C745.905 94.4 745.051 98.72 745.051 104.48L744.891 101.44L745.051 133.28C745.051 136.48 745.425 139.627 746.171 142.72C747.025 145.813 748.145 148.48 749.531 150.72C749.745 151.147 749.798 151.467 749.691 151.68C749.585 151.893 749.318 152 748.891 152H713.531C713.105 152 712.838 151.893 712.731 151.68C712.625 151.467 712.678 151.147 712.891 150.72C714.065 148.8 715.078 146.08 715.931 142.56C716.785 139.04 717.211 135.893 717.211 133.12V102.72L717.371 95.36C717.371 91.9466 717.051 89.0133 716.411 86.56C715.878 84.1066 714.758 82.0266 713.051 80.32C712.411 79.68 712.518 79.2 713.371 78.88L744.411 70.24C744.838 70.1333 745.158 70.1866 745.371 70.4C745.585 70.5066 745.638 70.7733 745.531 71.2C745.105 73.5466 744.891 76.5866 744.891 80.32V88.32C747.451 82.56 750.865 78.1333 755.131 75.04C759.398 71.9466 764.251 70.4 769.691 70.4C776.411 70.4 781.585 72.8533 785.211 77.76C788.945 82.56 790.811 89.4933 790.811 98.56V132.16C790.811 138.027 792.465 144.267 795.771 150.88Z" fill="white"/>
<path d="M828.563 153.12C823.656 153.12 818.643 152.587 813.523 151.52C808.403 150.453 804.029 149.067 800.403 147.36L799.283 123.04C799.283 122.72 799.389 122.56 799.603 122.56C799.923 122.453 800.189 122.507 800.403 122.72C804.669 128.587 808.349 133.28 811.443 136.8C814.536 140.32 817.896 143.2 821.523 145.44C825.149 147.573 829.096 148.64 833.363 148.64C836.669 148.64 839.069 148.107 840.563 147.04C842.056 145.867 842.803 144.107 842.803 141.76C842.803 138.133 841.469 135.307 838.803 133.28C836.136 131.147 831.923 128.8 826.163 126.24L823.123 124.96C816.083 121.867 810.483 118.187 806.323 113.92C802.269 109.653 800.243 103.787 800.243 96.32C800.243 87.68 803.389 81.28 809.683 77.12C816.083 72.8533 824.509 70.72 834.963 70.72C840.936 70.72 847.976 71.7333 856.083 73.76L858.963 95.52C859.069 95.9466 858.963 96.2133 858.643 96.32C858.323 96.32 858.056 96.2133 857.843 96C847.923 82.1333 838.856 75.2 830.643 75.2C823.496 75.2 819.923 77.76 819.923 82.88C819.923 85.6533 820.829 88.0533 822.643 90.08C824.456 92 826.643 93.6533 829.203 95.04C831.763 96.32 835.549 98.08 840.563 100.32C845.363 102.453 849.256 104.533 852.243 106.56C855.229 108.48 857.736 111.147 859.763 114.56C861.789 117.867 862.803 122.08 862.803 127.2C862.803 136.16 859.603 142.72 853.203 146.88C846.909 151.04 838.696 153.12 828.563 153.12Z" fill="white"/>
<path d="M100.008 104.241C66.965 104.241 35.323 115.603 14.6537 132.84C10.716 122.646 8.55253 111.572 8.55253 100C8.55253 88.428 10.716 77.3696 14.6537 67.1673C35.323 84.4047 66.9572 95.7665 100.008 95.7665C133.058 95.7665 164.677 84.4047 185.354 67.1829C189.3 77.3696 191.455 88.4358 191.455 100C191.455 111.564 189.292 122.63 185.354 132.825C164.685 115.603 133.051 104.241 100.008 104.241ZM167.09 162.07C154.833 143.829 128.35 118.249 100 118.249C71.6498 118.249 45.1518 143.837 32.9027 162.078C29.5564 158.467 26.4981 154.584 23.7665 150.467C36.716 133.774 63.9066 109.798 100 109.798C136.093 109.798 163.276 133.782 176.226 150.459C173.502 154.584 170.444 158.459 167.09 162.07ZM139.72 182.374C134.109 159.416 116.755 132.35 100 132.335H99.9922C83.2374 132.358 65.8833 159.424 60.2724 182.374C55.7198 180.163 51.3774 177.588 47.284 174.693C56.0934 153.938 75.5564 124.576 100 123.907C124.444 124.584 143.907 153.938 152.708 174.693C148.615 177.588 144.272 180.163 139.72 182.374ZM100.008 191.455C92.2802 191.455 84.7782 190.49 77.5953 188.669C80.3891 164.833 88.0623 138.047 100 138H100.008C111.946 138.039 119.619 164.825 122.412 188.669C115.245 190.49 107.735 191.455 100.008 191.455ZM32.9105 37.9144C45.1673 56.1401 71.6498 81.7354 100.008 81.7354C128.366 81.7354 154.848 56.1556 167.105 37.93C170.451 41.5409 173.51 45.4241 176.233 49.5409C163.284 66.2179 136.093 90.2023 100.008 90.2023C63.9222 90.2023 36.7237 66.2179 23.7665 49.5331C26.4981 45.4086 29.5564 41.5253 32.9027 37.9222L32.9105 37.9144ZM60.2802 17.6265C65.8911 40.5837 83.2451 67.6498 100 67.6654H100.008C116.763 67.6498 134.117 40.5759 139.728 17.6265C144.28 19.8366 148.638 22.4125 152.732 25.323C143.922 46.0778 124.451 75.4241 100.016 76.1012C75.572 75.4241 56.109 46.07 47.2996 25.3152C51.393 22.4202 55.7354 19.8444 60.2879 17.6342L60.2802 17.6265ZM77.2296 4.74708H77.2529L77.2296 4.77043V4.74708ZM100.008 8.54475C107.728 8.54475 115.245 9.50973 122.412 11.3307C119.619 35.1673 111.946 61.9533 100.008 62H100C88.0623 61.9611 80.3891 35.1751 77.5953 11.3307C84.7782 9.50973 92.2724 8.54475 100.008 8.54475ZM100.008 0C44.8638 0 0 44.856 0 99.9922C0 155.128 44.8638 200 100.008 200C155.152 200 200 155.136 200 99.9922C200 44.8483 155.144 0 100.008 0Z" fill="white"/>
</svg>
