<?xml version="1.0" encoding="UTF-8"?>
<svg xmlns="http://www.w3.org/2000/svg" viewBox="25 27 20 16" width="22.7" height="22.7">
  <path fill="#ffffff" d="M49.84,42.5c-.36,1.34-1.41,2.4-2.74,2.76-2.42.65-12.1.65-12.1.65,0,0-9.68,0-12.1-.65-1.33-.36-2.38-1.41-2.74-2.76-.65-2.43-.65-7.5-.65-7.5,0,0,0-5.07.65-7.5.36-1.34,1.41-2.4,2.74-2.76,2.42-.65,12.1-.65,12.1-.65,0,0,9.68,0,12.1.65,1.33.36,2.38,1.41,2.74,2.76.65,2.43.65,7.5.65,7.5,0,0,0,5.07-.65,7.5Z"/>
  <polygon fill="#232558" points="31.83 39.6 39.93 35 31.83 30.4 31.83 39.6"/>
</svg>
