<?xml version="1.0" encoding="utf-8"?>
<!-- Generator: Adobe Illustrator 26.3.1, SVG Export Plug-In . SVG Version: 6.00 Build 0)  -->
<svg version="1.1" id="Calque_1" xmlns="http://www.w3.org/2000/svg" xmlns:xlink="http://www.w3.org/1999/xlink" x="0px" y="0px"
	 viewBox="0 0 60 60" style="enable-background:new 0 0 60 60;" xml:space="preserve">
<style type="text/css">
	.st0{fill-rule:evenodd;clip-rule:evenodd;fill:#FFFFFF;}
	.st1{fill-rule:evenodd;clip-rule:evenodd;fill:#FDC300;}
</style>
<g id="_x30_1-Atoms_x2F_03-Picto_x2F_02-Duotone-_x2F_02-Building">
	<g id="COMPANY" transform="translate(15.000000, 15.000000)">
		<path id="Fill-1" class="st0" d="M-8.1-15v56H-15v4H1.7l0,0h12.1l0,0H45v-4h-5.3V-1.7l-16-6.1V-15H-8.1z M-4.1-11h23.9v52h-5.9
			V30.5H1.7V41h-5.9L-4.1-11L-4.1-11z M23.7-3.6L35.8,1v40H23.7V-3.6z M5.7,41h4.1v-6.5H5.7V41z"/>
		<polygon id="Fill-2" class="st1" points="0.5,-1.8 6.5,-1.8 6.5,-5.8 0.5,-5.8 		"/>
		<polygon id="Fill-3" class="st1" points="0.5,7.7 6.5,7.7 6.5,3.7 0.5,3.7 		"/>
		<polygon id="Fill-4" class="st1" points="0.5,17.2 6.5,17.2 6.5,13.2 0.5,13.2 		"/>
		<polygon id="Fill-5" class="st1" points="0.5,26.7 6.5,26.7 6.5,22.7 0.5,22.7 		"/>
		<polygon id="Fill-6" class="st1" points="9.5,-1.8 15.5,-1.8 15.5,-5.8 9.5,-5.8 		"/>
		<polygon id="Fill-7" class="st1" points="9.5,7.7 15.5,7.7 15.5,3.7 9.5,3.7 		"/>
		<polygon id="Fill-8" class="st1" points="9.5,17.2 15.5,17.2 15.5,13.2 9.5,13.2 		"/>
		<polygon id="Fill-9" class="st1" points="9.5,26.7 15.5,26.7 15.5,22.7 9.5,22.7 		"/>
		<polygon id="Fill-10" class="st1" points="26.7,8.5 32.7,8.5 32.7,4.5 26.7,4.5 		"/>
		<polygon id="Fill-11" class="st1" points="26.7,18 32.7,18 32.7,14 26.7,14 		"/>
		<polygon id="Fill-12" class="st1" points="26.7,27.5 32.7,27.5 32.7,23.5 26.7,23.5 		"/>
		<polygon id="Fill-13" class="st1" points="26.7,37 32.7,37 32.7,33 26.7,33 		"/>
	</g>
</g>
</svg>
