<?xml version="1.0" encoding="utf-8"?>
<!-- Generator: Adobe Illustrator 27.9.0, SVG Export Plug-In . SVG Version: 6.00 Build 0)  -->
<svg version="1.1" id="Calque_1" xmlns="http://www.w3.org/2000/svg" xmlns:xlink="http://www.w3.org/1999/xlink" x="0px" y="0px"
	 viewBox="0 0 300 300" style="enable-background:new 0 0 300 300;" xml:space="preserve">
<style type="text/css">
	.st0{fill:#283276;}
	.st1{fill:#F29FC5;}
	.st2{fill:#008ECF;}
	.st3{fill:#E1000F;}
	.st4{fill:#FFE000;}
</style>
<path class="st0" d="M59.2,217.9h32.3v6H78.7v34h-6.6v-34H59.4v-6H59.2z"/>
<path class="st0" d="M94.2,229.1h5.8v3.3c1.9-2.3,4.4-3.9,8.1-3.9c1,0,1.7,0.2,2.5,0.4v5.8c-1-0.2-1.7-0.4-3.1-0.4
	c-3.7,0-6,1.9-7.5,4.4v19.2h-5.8V229.1L94.2,229.1z"/>
<path class="st0" d="M114.1,250.4c0-4.3,3.3-7.5,9.5-8.5l9.3-1.5v-1.5c0-3.5-2.7-5.8-6.4-5.8c-3.1,0-5.6,1.4-7.4,3.7l-4.4-3.3
	c2.5-3.5,6.8-5.6,11.8-5.6c7.7,0,12,4.6,12,10.8v19h-5.8v-3.3c-2.1,2.5-5.6,4.1-9.3,4.1C118,258.9,114.1,255.6,114.1,250.4
	 M124.8,254.1c3.7,0,6.4-1.7,8.1-4.4v-5l-7.7,1.4c-3.7,0.6-5,2.1-5,4.3C120.1,252.3,121.9,254.1,124.8,254.1"/>
<path class="st0" d="M149.9,229.1l8.5,22.4l8.3-22.4h6.4l-10.8,28.8h-7.7l-10.8-28.8H149.9z"/>
<path class="st0" d="M176.2,250.4c0-4.3,3.3-7.5,9.5-8.5l9.3-1.5v-1.5c0-3.5-2.7-5.8-6.4-5.8c-3.1,0-5.6,1.4-7.2,3.7l-4.4-3.3
	c2.5-3.5,6.8-5.6,11.8-5.6c7.7,0,12,4.6,12,10.8v19H195v-3.3c-2.1,2.5-5.6,4.1-9.3,4.1C180.1,258.9,176.2,255.6,176.2,250.4
	 M186.9,254.1c3.7,0,6.4-1.7,8.1-4.4v-5l-7.7,1.4c-3.7,0.6-5,2.1-5,4.3C182,252.3,184,254.1,186.9,254.1"/>
<path class="st0" d="M215.9,229.1h-5.8v28.8h5.8V229.1z"/>
<path class="st0" d="M231.4,215.2h-5.8v42.8h5.8V215.2z"/>
<path class="st0" d="M209.5,220.4c0-1.9,1.5-3.5,3.5-3.5s3.5,1.5,3.5,3.5c0,1.9-1.5,3.5-3.5,3.5
	C211.1,223.9,209.5,222.3,209.5,220.4z"/>
<path class="st0" d="M63.5,166.6h22.2v5.6H70v11.2h13.5v5.6H70v17.6h-6.6C63.5,206.7,63.5,166.6,63.5,166.6z"/>
<path class="st0" d="M90.9,177.8h5.8v3.3c1.9-2.3,4.4-3.9,8.1-3.9c1,0,1.7,0.2,2.5,0.4v5.8c-1-0.2-1.7-0.4-3.1-0.4
	c-3.7,0-6,1.9-7.5,4.4v19.2h-5.8V177.8L90.9,177.8z"/>
<path class="st0" d="M110.8,199.1c0-4.3,3.3-7.5,9.5-8.5l9.3-1.5v-1.5c0-3.5-2.7-5.8-6.4-5.8c-3.1,0-5.6,1.4-7.4,3.7l-4.4-3.3
	c2.5-3.5,6.8-5.6,11.8-5.6c7.7,0,12,4.6,12,10.8v19h-5.8V203c-2.1,2.5-5.6,4.1-9.3,4.1C114.7,207.4,110.8,204.2,110.8,199.1
	 M121.7,202.6c3.7,0,6.4-1.7,8.1-4.4v-5l-7.7,1.4c-3.7,0.6-5,2.1-5,4.3C116.8,201.1,118.6,202.6,121.7,202.6"/>
<path class="st0" d="M143.9,177.8h5.8v2.7c2.1-2.3,5-3.9,9.1-3.9c6.4,0,11.2,4.3,11.2,12.6v17.2h-6v-17c0-4.6-2.5-7.4-6.6-7.4
	s-6.2,2.5-7.7,5v19.3h-5.8V177.8z"/>
<path class="st0" d="M200.2,198.3l4.6,3.5c-2.7,3.5-6.8,5.8-12.2,5.8c-9.7,0-15.7-7.2-15.7-15.5c0-8.3,6-15.5,15.7-15.5
	c5.2,0,9.5,2.3,12.2,5.8l-4.6,3.5c-1.5-2.3-4.3-3.9-7.5-3.9c-5.6,0-9.5,4.3-9.5,10.1c0,5.6,4.1,10.1,9.7,10.1
	C196,202.2,198.5,200.5,200.2,198.3"/>
<path class="st0" d="M224.2,207.6c-9.9,0-15.9-7.2-15.9-15.5c0-8.3,5.4-15.5,14.7-15.5c7.9,0,13.2,5.4,13.2,12.8
	c0,1.4-0.2,2.7-0.4,3.5h-21.3c0.4,6.2,4.3,9.5,9.7,9.5c3.5,0,6.4-1.5,8.1-3.9l4.3,3.5C234.1,205.5,229.6,207.6,224.2,207.6
	 M214.7,188.5h15.5c-0.2-3.7-2.7-7-7.4-7C218.6,181.5,215.7,184,214.7,188.5z"/>
<path class="st0" d="M195.4,112.5c0,4.8-4.1,8.9-8.9,8.9c-4.8,0-8.9-4.1-8.9-8.9s4.1-8.9,8.9-8.9
	C191.3,103.4,195.4,107.4,195.4,112.5z"/>
<path class="st1" d="M136.6,79c0,4.8-4.1,8.9-8.9,8.9c-4.8,0-8.9-4.1-8.9-8.9c0-4.8,4.1-8.9,8.9-8.9C132.5,70.1,136.6,74.2,136.6,79
	z"/>
<path class="st2" d="M178.6,102.6c0,4.8-4.1,8.9-8.9,8.9c-4.8,0-8.9-4.1-8.9-8.9s4.1-8.9,8.9-8.9C174.5,93.7,178.6,97.8,178.6,102.6
	z"/>
<path class="st1" d="M156.9,113.4c0,4.8-4.1,8.9-8.9,8.9s-8.9-4.1-8.9-8.9c0-4.8,4.1-8.9,8.9-8.9S156.9,108.4,156.9,113.4z"/>
<path class="st0" d="M156.9,134.5c0,4.8-4.1,8.9-8.9,8.9s-8.9-4.1-8.9-8.9s4.1-8.9,8.9-8.9S156.9,129.5,156.9,134.5z"/>
<path class="st0" d="M195.4,68c0,4.8-4.1,8.9-8.9,8.9c-4.8,0-8.9-4.1-8.9-8.9s4.1-8.9,8.9-8.9C191.3,59.1,195.4,62.9,195.4,68z"/>
<path class="st0" d="M178.6,79c0,4.8-4.1,8.9-8.9,8.9c-4.8,0-8.9-4.1-8.9-8.9c0-4.8,4.1-8.9,8.9-8.9C174.5,70.1,178.6,74.2,178.6,79
	z"/>
<path class="st0" d="M135.2,103.4c0,4.8-4.1,8.9-8.9,8.9s-8.9-4.1-8.9-8.9c0-4.8,4.1-8.9,8.9-8.9C131.2,94.5,135.2,98.5,135.2,103.4
	z"/>
<path class="st0" d="M118.2,66c1.2,4.8-1.9,9.5-6.8,10.6c-4.8,1.2-9.5-1.9-10.6-6.8c-1.2-4.8,1.9-9.5,6.8-10.6
	C112.4,58.1,117,61.2,118.2,66"/>
<path class="st3" d="M117.2,85.4c-0.4,2.7-2.9,4.6-5.8,4.3c-2.7-0.4-4.6-2.9-4.3-5.8c0.4-2.7,2.9-4.6,5.8-4.3
	C115.7,80,117.6,82.5,117.2,85.4"/>
<path class="st3" d="M168.5,122.1c-0.4,3.1-3.5,5.4-6.6,5c-3.3-0.4-5.4-3.5-5-6.6c0.4-3.1,3.5-5.4,6.6-5
	C166.8,115.9,168.9,118.8,168.5,122.1"/>
<path class="st3" d="M185.9,85c-0.2,1.9-2.1,3.3-4.1,2.9c-1.9-0.2-3.3-2.1-2.9-4.1c0.2-1.9,2.1-3.3,4.1-2.9
	C184.7,81.3,186.1,83.2,185.9,85z"/>
<path class="st3" d="M151.1,68.5c-0.4,2.7-2.9,4.6-5.8,4.3c-2.7-0.4-4.6-2.9-4.3-5.8c0.4-2.7,2.9-4.6,5.8-4.3
	C149.5,63.1,151.5,65.6,151.1,68.5"/>
<path class="st1" d="M165.6,62c-0.4,2.7-2.9,4.6-5.8,4.3c-2.7-0.4-4.6-2.9-4.3-5.8c0.4-2.7,2.9-4.6,5.8-4.3
	C164,56.5,166,59.1,165.6,62"/>
<path class="st4" d="M132.7,117.7c-0.4,2.7-2.9,4.6-5.8,4.3c-2.7-0.4-4.6-2.9-4.3-5.8c0.4-2.7,2.9-4.6,5.8-4.3
	C131.2,112.5,133.1,115,132.7,117.7"/>
<path class="st4" d="M182.6,94.8c-0.4,2.7-2.9,4.6-5.8,4.3c-2.7-0.4-4.6-2.9-4.3-5.8c0.4-2.7,2.9-4.6,5.8-4.3
	C181.1,89.6,183,92.1,182.6,94.8"/>
<path class="st0" d="M176.8,118.5c1.5,2.3,0.8,5.4-1.5,7c-2.3,1.5-5.4,0.8-7-1.5c-1.5-2.3-0.8-5.4,1.5-7
	C172.2,115.4,175.3,116.1,176.8,118.5z"/>
<path class="st4" d="M137.9,58.9c-0.4,2.7-2.9,4.6-5.8,4.3c-2.7-0.4-4.6-2.9-4.3-5.8c0.4-2.7,2.9-4.6,5.8-4.3
	C136.4,53.5,138.3,56.2,137.9,58.9"/>
<path class="st2" d="M157.3,46.1c0,5.2-4.3,9.3-9.3,9.3c-5.2,0-9.3-4.3-9.3-9.3s4.1-9.3,9.3-9.3S157.3,41.1,157.3,46.1z"/>
<path class="st2" d="M118.4,112.3c0,4.8-4.1,8.9-8.9,8.9c-4.8,0-8.9-4.1-8.9-8.9s4.1-8.9,8.9-8.9
	C114.3,103.4,118.4,107.4,118.4,112.3z"/>
<path class="st2" d="M162.3,88.3c0,8.5-7,15.7-15.7,15.7c-8.5,0-15.7-7-15.7-15.7c0-8.5,7-15.7,15.7-15.7S162.3,79.8,162.3,88.3z"/>
</svg>
