<?xml version="1.0" encoding="utf-8"?>
<!-- Generator: Adobe Illustrator 26.3.1, SVG Export Plug-In . SVG Version: 6.00 Build 0)  -->
<svg version="1.1" id="Layer_1" xmlns="http://www.w3.org/2000/svg" xmlns:xlink="http://www.w3.org/1999/xlink" x="0px" y="0px"
	 viewBox="0 0 27.4 21" style="enable-background:new 0 0 27.4 21;" xml:space="preserve">
<style type="text/css">
	.st0{fill:#026096;}
	.st1{fill:#FFFFFF;}
</style>
<circle class="st0" cx="13.7" cy="10.5" r="10.5"/>
<g>
	<g>
		<path class="st1" d="M18.1,15.9c-0.1,0-0.2,0-0.3,0.1c-1,0.6-2.1,0.9-3.2,0.9c-2.7,0-5.1-1.8-6-4.3h5.5c0.3,0,0.6-0.3,0.6-0.6
			c0-0.3-0.3-0.6-0.6-0.6H8.3c0-0.4-0.1-0.6-0.1-0.9c0-0.3,0-0.6,0.1-0.9h5.8c0.3,0,0.6-0.3,0.6-0.6c0-0.3-0.3-0.6-0.6-0.6H8.6
			c0.9-2.6,3.3-4.3,6-4.3c1.1,0,2.2,0.3,3.2,0.9C17.9,5,18,5.1,18.1,5.1c0.2,0,0.4-0.1,0.5-0.3c0.2-0.3,0.1-0.6-0.2-0.8
			c-1.1-0.7-2.5-1-3.8-1c-3.3,0-6.3,2.2-7.3,5.4H5.9C5.6,8.4,5.3,8.6,5.3,9c0,0.3,0.3,0.6,0.6,0.6h1.2c0,0.4-0.1,0.6-0.1,0.9
			c0,0.3,0,0.6,0.1,0.9H5.9c-0.3,0-0.6,0.3-0.6,0.6c0,0.3,0.3,0.6,0.6,0.6h1.4c0.9,3.2,3.9,5.4,7.3,5.4c1.3,0,2.6-0.4,3.8-1
			c0.3-0.2,0.4-0.5,0.2-0.8C18.5,16.1,18.3,15.9,18.1,15.9z"/>
	</g>
</g>
</svg>
