<?xml version="1.0" encoding="UTF-8"?>
<svg xmlns="http://www.w3.org/2000/svg" viewBox="22 22 26 26" width="22.7" height="22.7">
    <path fill="#ffffff" d="M46.79,33.23c-1.28.12-2.5-.1-3.66-.65-1.15-.55-2.08-1.36-2.85-2.4,0,.1-.01.2-.01.31,0,3.45,0,6.9,0,10.35,0,1.6-.39,3.11-1.29,4.43-1.79,2.63-4.3,3.88-7.49,3.63-3.3-.25-6.19-2.67-7.03-6-1-3.98,1.14-8.06,4.99-9.49.9-.34,1.84-.49,2.8-.5.12,0,.23,0,.35.02.03,0,.07.01.12.02v3.91c-.08,0-.15,0-.22,0-1.86-.18-3.9,1.14-4.29,3.34-.34,1.92.69,3.79,2.48,4.52,2.28.94,5.02-.38,5.67-2.74.09-.32.14-.65.14-.98.02-4.38.02-8.75.03-13.13,0-1.66,0-3.32.01-4.99,0-.11,0-.21,0-.33h3.77c.21,1.68.89,3.13,2.11,4.31,1.21,1.18,2.67,1.82,4.37,1.98v4.39Z"/>
</svg>
