<?xml version="1.0" encoding="utf-8"?>
<!-- Generator: Adobe Illustrator 26.0.1, SVG Export Plug-In . SVG Version: 6.00 Build 0)  -->
<svg version="1.1" id="Calque_1" xmlns="http://www.w3.org/2000/svg" xmlns:xlink="http://www.w3.org/1999/xlink" x="0px" y="0px"
	 viewBox="0 0 60 60" style="enable-background:new 0 0 60 60;" xml:space="preserve">
<style type="text/css">
	.st0{fill-rule:evenodd;clip-rule:evenodd;fill:#232558;}
	.st1{fill-rule:evenodd;clip-rule:evenodd;fill:#FDC300;}
</style>
<g id="_x30_1-Atoms_x2F_03-Picto_x2F_02-Duotone-_x2F_01-Modular">
	<g id="FILTER" transform="translate(14.985410, 17.000000)">
		<polygon id="Stroke-4" class="st0" points="44.3,29.3 44.3,33.3 21.3,33.3 21.3,29.3 		"/>
		<polygon id="Stroke-4-Copy" class="st0" points="9.1,29.3 9.1,33.3 -14,33.3 -14,29.3 		"/>
		<polygon id="Stroke-9" class="st1" points="45,9.5 45,13.5 38,13.5 38,9.5 		"/>
		<polygon id="Stroke-11" class="st0" points="44.3,-7.1 44.3,-3.1 4.8,-3.1 4.8,-7.1 		"/>
		<polygon id="Stroke-11-Copy" class="st0" points="-14.8,-7.1 -6.5,-7 -6.6,-3 -14.8,-3.1 		"/>
		<polygon id="Stroke-11-Copy-2" class="st1" points="-14.8,9.5 26.7,9.6 26.7,13.6 -14.8,13.5 		"/>
		<path id="Stroke-16" class="st0" d="M-1-12.8c-4.3,0-7.7,3.4-7.7,7.7S-5.2,2.6-1,2.6s7.7-3.4,7.7-7.7S3.3-12.8-1-12.8z M-1-8.8
			c2.1,0,3.8,1.7,3.8,3.7S1.1-1.4-1-1.4s-3.8-1.7-3.8-3.7S-3-8.8-1-8.8z"/>
		<path id="Stroke-18" class="st1" d="M32.1,4.6c-4.3,0-7.7,3.4-7.7,7.7s3.5,7.7,7.7,7.7s7.7-3.4,7.7-7.7S36.3,4.6,32.1,4.6z
			 M32.1,8.6c2.1,0,3.8,1.7,3.8,3.7c0,2-1.7,3.7-3.8,3.7c-2.1,0-3.8-1.7-3.8-3.7C28.3,10.3,30,8.6,32.1,8.6z"/>
		<path id="Stroke-20" class="st0" d="M15.5,23.6c-4.3,0-7.7,3.4-7.7,7.7s3.5,7.7,7.7,7.7s7.7-3.4,7.7-7.7S19.8,23.6,15.5,23.6z
			 M15.5,27.6c2.1,0,3.8,1.7,3.8,3.7S17.6,35,15.5,35c-2.1,0-3.8-1.7-3.8-3.7S13.4,27.6,15.5,27.6z"/>
	</g>
</g>
</svg>
