<?xml version="1.0" encoding="utf-8"?>
<!-- Generator: Adobe Illustrator 26.0.1, SVG Export Plug-In . SVG Version: 6.00 Build 0)  -->
<svg version="1.1" id="Calque_1" xmlns="http://www.w3.org/2000/svg" xmlns:xlink="http://www.w3.org/1999/xlink" x="0px" y="0px"
	 viewBox="0 0 22.7 22.7" style="enable-background:new 0 0 22.7 22.7;" xml:space="preserve">
<style type="text/css">
	.st0{fill:#FFFFFF;}
</style>
<g transform="translate(-602 -291)">
	<path class="st0" d="M624.6,304.8v8.4h-4.8v-7.8c0-2-0.7-3.3-2.5-3.3c-1.1,0-2.1,0.7-2.5,1.8c-0.1,0.4-0.2,0.8-0.2,1.2v8.1h-4.8
		c0,0,0.1-13.2,0-14.6h4.8v2.1c0,0,0,0,0,0h0v0c0.9-1.6,2.6-2.5,4.4-2.4C622.2,298.2,624.6,300.3,624.6,304.8z M604.8,291.5
		c-1.4-0.1-2.6,0.9-2.7,2.3c-0.1,1.4,0.9,2.6,2.3,2.7c0.1,0,0.2,0,0.4,0h0c1.4,0.1,2.6-0.9,2.7-2.3c0.1-1.4-0.9-2.6-2.3-2.7
		C605,291.5,604.9,291.5,604.8,291.5z M602.3,313.1h4.8v-14.6h-4.8V313.1z"/>
</g>
</svg>
