<?xml version="1.0" encoding="UTF-8"?> <svg xmlns="http://www.w3.org/2000/svg" viewBox="0 0 32 32"><path d="m16 18.8c-1.5 0-2.8-1.2-2.8-2.8 0-1.5 1.2-2.8 2.8-2.8 1.5 0 2.8 1.2 2.8 2.8 0 1.5-1.3 2.8-2.8 2.8z" fill="#fff"></path><path d="m19.4 9.2h-6.8c-0.8 0.1-1.2 0.2-1.5 0.3-0.4 0.1-0.7 0.3-1 0.6-0.23739 0.2374-0.34955 0.4748-0.48511 0.7617-0.03573 0.0756-0.07319 0.1549-0.11489 0.2383-0.01547 0.0464-0.03333 0.0952-0.05248 0.1475-0.10461 0.2858-0.24752 0.6763-0.24752 1.3525v6.8c0.1 0.8 0.2 1.2 0.3 1.5 0.1 0.4 0.3 0.7 0.6 1 0.2374 0.2374 0.4748 0.3495 0.7617 0.4851 0.0757 0.0358 0.1548 0.0732 0.2383 0.1149 0.0464 0.0155 0.0952 0.0333 0.1475 0.0525 0.2858 0.1046 0.6763 0.2475 1.3525 0.2475h6.8c0.8-0.1 1.2-0.2 1.5-0.3 0.4-0.1 0.7-0.3 1-0.6 0.2374-0.2374 0.3495-0.4748 0.4851-0.7617 0.0358-0.0757 0.0732-0.1548 0.1149-0.2383 0.0155-0.0464 0.0333-0.0952 0.0525-0.1475 0.1046-0.2858 0.2475-0.6763 0.2475-1.3525v-6.8c-0.1-0.8-0.2-1.2-0.3-1.5-0.1-0.4-0.3-0.7-0.6-1-0.2374-0.23739-0.4748-0.34955-0.7617-0.48512-0.0756-0.0357-0.155-0.07321-0.2383-0.11488-0.0464-0.01547-0.0952-0.03334-0.1475-0.05248-0.2858-0.10462-0.6763-0.24752-1.3525-0.24752zm-3.4 2.5c-2.4 0-4.3 1.9-4.3 4.3s1.9 4.3 4.3 4.3 4.3-1.9 4.3-4.3-1.9-4.3-4.3-4.3zm5.4-0.1c0 0.5523-0.4477 1-1 1s-1-0.4477-1-1 0.4477-1 1-1 1 0.4477 1 1z" clip-rule="evenodd" fill="#fff" fill-rule="evenodd"></path><path d="m0 16c0-8.8366 7.1634-16 16-16 8.8366 0 16 7.1634 16 16 0 8.8366-7.1634 16-16 16-8.8366 0-16-7.1634-16-16zm12.6-8.3h6.8c0.9 0.1 1.5 0.2 2 0.4 0.6 0.3 1 0.5 1.5 1s0.8 1 1 1.5 0.4 1.1 0.4 2v6.8c-0.1 0.9-0.2 1.5-0.4 2-0.3 0.6-0.5 1-1 1.5s-1 0.8-1.5 1-1.1 0.4-2 0.4h-6.8c-0.9-0.1-1.5-0.2-2-0.4-0.6-0.3-1-0.5-1.5-1s-0.8-1-1-1.5-0.4-1.1-0.4-2v-6.8c0.1-0.9 0.2-1.5 0.4-2 0.3-0.6 0.5-1 1-1.5s1-0.8 1.5-1 1.1-0.4 2-0.4z" clip-rule="evenodd" fill="#fff" fill-rule="evenodd"></path></svg> 